<svg xmlns="http://www.w3.org/2000/svg" xmlns:xlink="http://www.w3.org/1999/xlink" preserveAspectRatio="xMidYMid" width="2390" height="1910" viewBox="0 0 478 382">
  <defs>
    <style>
      .cls-1 {
        fill: #fff;
        fill-rule: evenodd;
      }
    </style>
  </defs>
  <path d="M193.000,101.000 L193.000,215.000 L171.000,215.000 L171.000,331.000 C171.000,331.000 170.411,337.418 165.000,343.000 C159.589,348.582 151.000,351.000 151.000,351.000 L76.000,351.000 C76.000,351.000 68.387,349.054 63.000,342.000 C57.613,334.946 58.000,331.000 58.000,331.000 L58.000,287.000 C58.000,287.000 58.480,267.983 64.000,245.000 C69.520,222.017 82.249,196.130 90.000,177.000 C97.751,157.870 101.640,146.203 102.000,136.000 C102.360,125.797 102.000,121.000 102.000,121.000 C102.000,121.000 102.117,113.826 108.000,108.000 C113.883,102.174 123.000,101.000 123.000,101.000 " class="cls-1"/>
  <path d="M194.000,79.000 L125.000,79.000 L125.000,42.000 C125.000,42.000 125.409,38.390 128.000,36.000 C130.591,33.610 135.000,33.000 135.000,33.000 L183.000,33.000 C183.000,33.000 188.803,33.013 191.000,36.000 C193.197,38.987 194.000,44.000 194.000,44.000 " class="cls-1"/>
  <path d="M285.000,100.000 L285.000,214.000 L307.000,214.000 L307.000,330.000 C307.000,330.000 307.589,336.418 313.000,342.000 C318.411,347.582 327.000,350.000 327.000,350.000 L402.000,350.000 C402.000,350.000 409.613,348.054 415.000,341.000 C420.387,333.946 420.000,330.000 420.000,330.000 L420.000,286.000 C420.000,286.000 419.520,266.983 414.000,244.000 C408.480,221.017 395.751,195.130 388.000,176.000 C380.249,156.870 376.360,145.203 376.000,135.000 C375.640,124.797 376.000,120.000 376.000,120.000 C376.000,120.000 375.883,112.826 370.000,107.000 C364.117,101.174 355.000,100.000 355.000,100.000 " class="cls-1"/>
  <path d="M284.000,78.000 L353.000,78.000 L353.000,41.000 C353.000,41.000 352.591,37.390 350.000,35.000 C347.409,32.610 343.000,32.000 343.000,32.000 L295.000,32.000 C295.000,32.000 289.197,32.013 287.000,35.000 C284.803,37.987 284.000,43.000 284.000,43.000 " class="cls-1"/>
  <path d="M216.000,101.000 L216.000,214.000 L261.000,214.000 L261.000,101.000 " class="cls-1"/>
</svg>
