<svg id="Layer_1" data-name="Layer 1" xmlns="http://www.w3.org/2000/svg" viewBox="0 0 1594.28 2126"><title>award</title><path d="M405,1503.77c-36.12-36.12-17.44-25.74-104.2-49.41-39.45-10.38-74.32-31.13-105.46-55.21L6.87,1861.22c-18.27,44.84,15.78,93.41,63.94,91.34l218.79-8.3,150.28,159c33.22,34.88,91.34,24.08,109.61-20.76l216.3-529.74c-44.84,24.91-95.08,39.85-146.56,39.85C538.28,1592.61,462.3,1561.06,405,1503.77Zm1186.12,357.45-188.48-461.66c-31.56,24.5-66,44.84-105.46,55.22-87.59,23.25-68.5,13.28-104.2,49.4-57.29,57.3-133.27,88.85-214.22,88.85-51.48,0-101.72-14.53-146.56-39.86L1048.1,2082.5c18.26,44.84,76.39,55.64,109.6,20.76l150.7-159,218.79,8.3C1575.35,1954.63,1609.4,1906.06,1591.13,1861.22Zm-497.36-451.28c63.52-64.35,70.57-59,161.08-83.45a168.4,168.4,0,0,0,118.32-120.39c31.14-117.91,22.83-103.79,107.94-190.15,42.35-43.17,58.54-105.45,43.18-164.4-31.14-117.91-31.14-101.3,0-219.21a173.49,173.49,0,0,0-43.18-164.4c-84.69-86.36-76.8-72.24-107.94-190.15-15.36-58.53-60.61-104.62-118.32-120.39C1139,125.84,1153.13,134.15,1068,47.79a164.75,164.75,0,0,0-161.5-44c-115.42,32-99.23,32-215.47.41-57.71-15.77-119.15,1.25-161.5,44-84.69,86.35-71,78.05-186.41,109.6a168.43,168.43,0,0,0-118.32,120.4C193.69,396.11,202,382,116.89,468.35,74.54,511.11,58.35,573.8,73.71,632.76c31.14,117.9,31.14,101.3,0,219.2a173.51,173.51,0,0,0,43.18,164.41c84.69,86.35,76.8,72.24,107.94,190.14,15.36,58.54,60.61,104.62,118.32,120.4,93,25.32,100.06,21.17,161.08,83.45a164.37,164.37,0,0,0,206.34,24.08c54-34,122.89-34,176.44,0A165.5,165.5,0,0,0,1093.77,1409.94ZM407.5,729.07c0-220,175.2-398.55,391.5-398.55S1190.5,509,1190.5,729.07,1015.3,1127.63,799,1127.63,407.5,949.11,407.5,729.07Z" transform="translate(-1.86 2.07)" style="fill:#fff"/></svg>