<svg xmlns="http://www.w3.org/2000/svg" xmlns:xlink="http://www.w3.org/1999/xlink" preserveAspectRatio="xMidYMid" width="1870" height="1490" viewBox="0 0 374 298">
  <defs>
    <style>
      .cls-1 {
        fill: #fff;
        fill-rule: evenodd;
      }

      .cls-2 {
        stroke: #fff;
        stroke-width: 24px;
        fill: none;
      }
    </style>
  </defs>
  <path d="M326.000,229.000 L252.000,157.000 C252.000,157.000 240.388,148.722 227.000,150.000 C213.612,151.278 208.000,157.000 208.000,157.000 L192.000,173.000 C192.000,173.000 183.644,186.465 187.000,198.000 C190.356,209.535 195.000,216.000 195.000,216.000 L265.000,286.000 C265.000,286.000 270.226,292.473 278.000,292.000 C285.774,291.527 291.000,287.000 291.000,287.000 L324.000,255.000 C324.000,255.000 328.832,248.169 329.000,240.000 " class="cls-1"/>
  <path d="M214.000,156.000 L152.000,95.000 L152.000,60.000 L81.000,7.000 L46.000,43.000 L98.000,114.000 L133.000,115.000 L193.000,175.000 " class="cls-1"/>
  <path d="M169.000,88.000 L215.000,134.000 C215.000,134.000 223.714,129.669 240.000,134.000 C256.286,138.331 261.254,142.325 268.000,148.000 C274.746,153.675 280.000,160.000 280.000,160.000 C280.000,160.000 308.113,149.548 319.000,125.000 C329.887,100.452 327.949,83.749 327.000,74.000 C326.051,64.251 322.497,61.427 319.000,62.000 C315.503,62.573 314.000,65.000 314.000,65.000 L274.000,106.000 L237.000,99.000 L231.000,62.000 L272.000,20.000 C272.000,20.000 274.932,16.253 274.000,14.000 C273.068,11.747 261.114,4.410 240.000,7.000 C218.886,9.590 193.391,25.572 186.000,37.000 C178.609,48.428 170.741,67.289 170.000,75.000 " class="cls-1"/>
  <path d="M140.000,146.000 L171.000,178.000 C171.000,178.000 168.995,191.518 170.000,197.000 C171.005,202.482 175.000,214.000 175.000,214.000 L102.000,284.000 L102.000,249.000 L89.000,233.000 L63.000,229.000 L59.000,226.000 " class="cls-1"/>
  <circle cx="80.75" cy="254.609" r="35.781" class="cls-2"/>
</svg>
