<svg xmlns="http://www.w3.org/2000/svg" xmlns:xlink="http://www.w3.org/1999/xlink" preserveAspectRatio="xMidYMid" width="1670" height="1340" viewBox="0 0 334 268">
  <defs>
    <style>
      .cls-1 {
        fill: #fff;
        fill-rule: evenodd;
      }
    </style>
  </defs>
  <path d="M199.000,7.000 L199.000,71.000 L262.000,71.000 C262.000,71.000 263.173,65.789 262.000,63.000 C260.827,60.211 259.000,58.000 259.000,58.000 L209.000,9.000 C209.000,9.000 205.954,6.097 203.000,6.000 " class="cls-1"/>
  <path d="M171.000,117.000 L165.000,117.000 L163.000,108.000 L172.000,108.000 " class="cls-1"/>
  <path d="M167.000,111.000 L167.000,117.000 C167.000,117.000 164.306,116.526 162.000,118.000 C159.694,119.474 159.000,121.000 159.000,121.000 L159.000,134.000 C159.000,134.000 148.028,133.457 142.000,144.000 C135.972,154.543 138.464,162.783 141.000,167.000 C143.536,171.217 152.000,177.000 152.000,177.000 L175.000,184.000 C175.000,184.000 181.225,186.309 180.000,192.000 C178.775,197.691 175.000,197.000 175.000,197.000 L159.000,198.000 C159.000,198.000 153.869,195.919 153.000,195.000 C152.131,194.081 151.000,194.000 151.000,194.000 L142.000,203.000 C142.000,203.000 141.605,204.511 143.000,206.000 C144.395,207.489 147.635,210.041 151.000,211.000 C154.365,211.959 159.000,212.000 159.000,212.000 L159.000,226.000 C159.000,226.000 159.727,227.366 161.000,228.000 C162.273,228.634 164.000,229.000 164.000,229.000 L172.000,229.000 C172.000,229.000 172.210,227.773 173.000,227.000 C173.790,226.227 174.000,225.000 174.000,225.000 L174.000,212.000 C174.000,212.000 177.427,213.026 183.000,210.000 C188.573,206.974 194.207,203.437 195.000,193.000 C195.793,182.563 189.380,173.298 187.000,172.000 C184.620,170.702 181.000,169.000 181.000,169.000 L158.000,162.000 C158.000,162.000 152.838,159.411 153.000,155.000 C153.162,150.589 156.025,149.302 157.000,149.000 C157.975,148.698 159.000,149.000 159.000,149.000 L176.000,149.000 C176.000,149.000 179.162,150.552 180.000,151.000 C180.838,151.448 183.380,152.895 184.000,152.000 C184.620,151.105 192.000,144.000 192.000,144.000 C192.000,144.000 190.567,140.929 190.000,140.000 C189.433,139.071 184.022,135.914 182.000,135.000 C179.978,134.086 175.000,134.000 175.000,134.000 L175.000,121.000 C175.000,121.000 173.132,118.245 172.000,118.000 C170.868,117.755 169.000,117.000 169.000,117.000 L169.000,111.000 L262.000,111.000 L262.000,250.000 C262.000,250.000 261.074,255.736 258.000,258.000 C254.926,260.264 251.000,261.000 251.000,261.000 L81.000,261.000 C81.000,261.000 75.630,259.128 74.000,256.000 C72.370,252.872 72.000,250.000 72.000,250.000 L72.000,108.000 " class="cls-1"/>
  <path d="M103.000,6.000 L106.000,6.000 L106.000,39.000 L103.000,42.000 " class="cls-1"/>
  <path d="M150.000,85.000 L146.000,87.000 L147.000,90.000 L198.000,90.000 L196.000,87.000 L194.000,86.000 L188.000,85.000 " class="cls-1"/>
  <path d="M193.000,86.000 L148.000,86.000 C148.000,86.000 148.901,86.001 150.000,84.000 C151.099,81.999 151.000,82.000 151.000,82.000 L151.000,73.000 C151.000,73.000 151.307,71.691 150.000,71.000 C148.693,70.309 147.000,70.000 147.000,70.000 L106.000,70.000 C106.000,70.000 104.001,71.284 104.000,72.000 C103.999,72.716 104.000,75.000 104.000,75.000 L104.000,84.000 C104.000,84.000 105.251,84.735 106.000,85.000 C106.749,85.265 108.000,86.000 108.000,86.000 L147.000,86.000 L148.000,87.000 L194.000,87.000 L194.000,86.000 L262.000,86.000 L262.000,112.000 L72.000,112.000 L72.000,17.000 C72.000,17.000 71.270,13.468 75.000,10.000 C78.730,6.532 81.000,6.000 81.000,6.000 L104.000,6.000 L104.000,52.000 C104.000,52.000 104.907,53.334 106.000,54.000 C107.093,54.666 108.000,54.000 108.000,54.000 L148.000,54.000 C148.000,54.000 149.416,54.428 150.000,53.000 C150.584,51.572 151.000,50.000 151.000,50.000 L151.000,41.000 C151.000,41.000 150.963,41.321 150.000,40.000 C149.037,38.679 148.000,39.000 148.000,39.000 L106.000,39.000 L105.000,40.000 L105.000,6.000 L183.000,6.000 L183.000,76.000 C183.000,76.000 182.802,78.970 185.000,81.000 C187.198,83.030 191.000,85.000 191.000,85.000 " class="cls-1"/>
</svg>
