<svg xmlns="http://www.w3.org/2000/svg" xmlns:xlink="http://www.w3.org/1999/xlink" preserveAspectRatio="xMidYMid" width="2880" height="2300" viewBox="0 0 576 460">
  <defs>
    <style>
      .cls-1 {
        fill: #fff;
        fill-rule: evenodd;
      }
    </style>
  </defs>
  <path d="M178.893,40.214 C231.301,40.214 273.786,82.699 273.786,135.107 C273.786,187.515 231.301,230.000 178.893,230.000 C126.485,230.000 84.000,187.515 84.000,135.107 C84.000,82.699 126.485,40.214 178.893,40.214 Z" class="cls-1"/>
  <path d="M422.690,66.815 C467.752,66.815 504.283,103.345 504.283,148.408 C504.283,193.470 467.752,230.000 422.690,230.000 C377.628,230.000 341.098,193.470 341.098,148.408 C341.098,103.345 377.628,66.815 422.690,66.815 Z" class="cls-1"/>
  <path d="M50.000,421.000 C50.000,421.000 40.306,423.339 28.000,410.000 C15.694,396.661 15.000,386.000 15.000,386.000 C15.000,386.000 12.383,364.206 16.000,344.000 C19.617,323.794 23.403,310.453 33.000,299.000 C42.597,287.547 54.542,274.929 68.000,269.000 C81.458,263.071 95.715,258.721 104.000,258.000 C112.285,257.279 121.000,258.000 121.000,258.000 C121.000,258.000 148.036,270.895 175.000,271.000 C201.964,271.105 237.000,257.000 237.000,257.000 C237.000,257.000 262.115,257.456 278.000,264.000 C293.885,270.544 310.001,278.967 321.000,294.000 C331.999,309.033 330.099,305.314 336.000,321.000 C341.901,336.686 342.978,356.473 343.000,369.000 C343.022,381.527 343.398,397.478 332.000,408.000 C320.602,418.522 305.000,421.000 305.000,421.000 " class="cls-1"/>
  <path d="M336.000,271.000 C336.000,271.000 353.119,290.690 359.000,305.000 C364.881,319.310 369.327,332.617 370.000,351.000 C370.673,369.383 370.000,394.000 370.000,394.000 L523.000,394.000 C523.000,394.000 542.309,392.562 550.000,382.000 C557.691,371.438 561.320,361.896 561.000,352.000 C560.680,342.104 557.927,320.772 548.000,305.000 C538.073,289.228 520.193,273.566 514.000,270.000 C507.807,266.434 483.823,258.908 479.000,258.000 C474.177,257.092 462.561,256.798 458.000,259.000 C453.439,261.202 434.917,264.874 424.000,265.000 C413.083,265.126 386.000,257.000 386.000,257.000 C386.000,257.000 369.989,258.314 358.000,262.000 " class="cls-1"/>
</svg>
