<svg xmlns="http://www.w3.org/2000/svg" xmlns:xlink="http://www.w3.org/1999/xlink" preserveAspectRatio="xMidYMid" width="3680" height="2940" viewBox="0 0 736 588">
  <defs>
    <style>
      .cls-1 {
        stroke: #fff;
        stroke-width: 90px;
        fill: none;
      }

      .cls-2 {
        fill: #fff;
        fill-rule: evenodd;
      }
    </style>
  </defs>
  <circle cx="315.5" cy="242.5" r="229.5" class="cls-1"/>
  <path d="M461.000,406.000 L455.000,426.000 C455.000,426.000 454.025,437.520 455.000,443.000 C455.975,448.480 460.000,453.000 460.000,453.000 L574.000,568.000 C574.000,568.000 579.850,575.009 588.000,575.000 C596.150,574.991 607.000,569.000 607.000,569.000 L643.000,532.000 C643.000,532.000 649.487,525.582 649.000,515.000 C648.513,504.418 641.000,498.000 641.000,498.000 L529.000,385.000 C529.000,385.000 523.483,382.792 519.000,381.000 C514.517,379.208 511.000,381.000 511.000,381.000 L477.000,381.000 " class="cls-2"/>
</svg>
