<svg xmlns="http://www.w3.org/2000/svg" viewBox="0 0 2054.19 1601.92"><defs><style>.cls-1,.cls-2{fill:#fff;}.cls-2{fill-rule:evenodd;}</style></defs><title>Chat1</title><g id="Layer_1" data-name="Layer 1"><ellipse class="cls-1" cx="743.98" cy="575" rx="740" ry="575"/><path class="cls-2" d="M315,1025s-39.76,110.52-66.79,147c-29.71,40.13-62.55,78.7-62.55,78.7s-26.52,33.55-17.93,43.79S195,1300,195,1300s132-3.93,200-30,150-80,150-80" transform="translate(-166.02 -155)"/><path class="cls-2" d="M1841.23,1645.81s82,53.93,150,80,200,30,200,30,18.68,4.77,27.27-5.47-17.93-43.78-17.93-43.78-32.84-38.58-62.55-78.71c-27-36.52-66.79-147-66.79-147" transform="translate(-166.02 -155)"/></g><g id="Layer_4" data-name="Layer 4"><path class="cls-1" d="M2220.21,1181.92c0,317.56-331.31,575-740,575-307.49,0-571.18-145.73-682.92-353.16,33.89,6.83,427.13,61.35,732.36-211C1754.36,992.19,1756.44,711.89,1758,648.81,2026.11,748.74,2220.21,961.11,2220.21,1181.92Z" transform="translate(-166.02 -155)"/></g></svg>