<svg xmlns="http://www.w3.org/2000/svg" viewBox="0 0 239 191"><defs><style>.cls-1{isolation:isolate;}.cls-2{fill:#fff;}</style></defs><title>Artboard 1</title><g id="Ellipse_1" data-name="Ellipse 1" class="cls-1"><g id="Ellipse_1-2" data-name="Ellipse 1"><ellipse class="cls-2" cx="91" cy="73" rx="74" ry="57.5"/></g></g><g id="Shape_1" data-name="Shape 1" class="cls-1"><g id="Shape_1-2" data-name="Shape 1"><path class="cls-2" d="M214,161c-3.22-6.17-5.5-10-5.5-10s14.14-14.66,13.5-31a55.84,55.84,0,0,0-14-35c-5.82-6.26-14.42-11.81-18.5-14A63.32,63.32,0,0,0,179,66.5l-3.5-1s1.67,22.78-6,34-18.06,21.7-24,25.5-24.7,12.73-34.5,14-28.5,1.5-28.5,1.5h-3s13.87,22.26,33,28,34.56,9.13,49,6A125.9,125.9,0,0,0,187,166s6.76,5.32,14.5,7,14,2.5,14,2.5,2.92.36,4.5-1a4,4,0,0,0,1.5-3A48.48,48.48,0,0,1,214,161Z"/></g></g><g id="Shape_2" data-name="Shape 2" class="cls-1"><g id="Shape_2-2" data-name="Shape 2"><path class="cls-2" d="M31.5,102.5s-4.45,11.64-7.5,15-6,7-6,7S16.14,127,17,128a12,12,0,0,0,2.5,2s13.2-.39,20-3,15-8,15-8Z"/></g></g></svg>