<svg xmlns="http://www.w3.org/2000/svg" xmlns:xlink="http://www.w3.org/1999/xlink" preserveAspectRatio="xMidYMid" width="2480" height="1980" viewBox="0 0 496 396">
  <defs>
    <style>
      .cls-1 {
        fill: #fff;
        fill-rule: evenodd;
      }
    </style>
  </defs>
  <path d="M39.000,195.000 L225.000,41.000 C225.000,41.000 233.394,32.922 246.000,33.000 C258.606,33.078 267.000,39.000 267.000,39.000 L336.000,95.000 L336.000,39.000 C336.000,39.000 335.039,37.858 338.000,35.000 C340.961,32.142 343.000,33.000 343.000,33.000 L387.000,33.000 C387.000,33.000 390.319,33.177 392.000,35.000 C393.681,36.823 395.000,40.000 395.000,40.000 L395.000,144.000 L458.000,196.000 C458.000,196.000 460.186,197.603 460.000,201.000 C459.814,204.397 459.000,204.000 459.000,204.000 L437.000,232.000 C437.000,232.000 433.693,233.957 431.000,234.000 C428.307,234.043 428.000,232.000 428.000,232.000 L252.000,87.000 C252.000,87.000 250.991,85.872 247.000,86.000 C243.009,86.128 242.000,89.000 242.000,89.000 L67.000,232.000 C67.000,232.000 65.482,234.270 63.000,234.000 C60.518,233.730 59.000,233.000 59.000,233.000 L36.000,204.000 C36.000,204.000 34.126,200.028 35.000,198.000 " class="cls-1"/>
  <path d="M106.000,230.000 L106.000,353.000 C106.000,353.000 106.634,357.262 109.000,359.000 C111.366,360.738 116.000,362.000 116.000,362.000 L201.000,362.000 C201.000,362.000 204.186,361.943 208.000,359.000 C211.814,356.057 212.000,354.000 212.000,354.000 L212.000,278.000 C212.000,278.000 213.011,272.695 216.000,271.000 C218.989,269.305 222.000,269.000 222.000,269.000 L272.000,269.000 C272.000,269.000 276.621,268.638 279.000,271.000 C281.379,273.362 283.000,278.000 283.000,278.000 L283.000,353.000 C283.000,353.000 284.070,357.887 286.000,359.000 C287.930,360.113 293.000,362.000 293.000,362.000 L380.000,362.000 C380.000,362.000 381.935,361.943 385.000,359.000 C388.065,356.057 389.000,354.000 389.000,354.000 L389.000,230.000 L252.000,117.000 C252.000,117.000 250.367,115.915 247.000,116.000 C243.633,116.085 242.000,118.000 242.000,118.000 " class="cls-1"/>
</svg>
